<svg width="381" height="374" viewBox="0 0 381 374" fill="none" xmlns="http://www.w3.org/2000/svg">
<g opacity="0.6">
<g clip-path="url(#clip0_1_252)">
<path d="M68 318V306H76V318H86V302H92L72 284L52 302H58V318H68Z" fill="white"/>
</g>
<circle cx="72" cy="302" r="69.5" stroke="white" stroke-width="5"/>
<g clip-path="url(#clip1_1_252)">
<path d="M100 29H99V27C99 24.24 96.76 22 94 22C91.24 22 89 24.24 89 27V29H88C86.9 29 86 29.9 86 31V41C86 42.1 86.9 43 88 43H100C101.1 43 102 42.1 102 41V31C102 29.9 101.1 29 100 29ZM94 38C92.9 38 92 37.1 92 36C92 34.9 92.9 34 94 34C95.1 34 96 34.9 96 36C96 37.1 95.1 38 94 38ZM97.1 29H90.9V27C90.9 25.29 92.29 23.9 94 23.9C95.71 23.9 97.1 25.29 97.1 27V29Z" fill="white"/>
</g>
<circle cx="94" cy="33" r="32" stroke="white" stroke-width="2"/>
<g clip-path="url(#clip2_1_252)">
<path d="M358 119H353.83L357.07 115.76L355.66 114.34L351 119H349V117L353.66 112.34L352.24 110.93L349 114.17V110H347V114.17L343.76 110.93L342.34 112.34L347 117V119H345L340.34 114.34L338.93 115.76L342.17 119H338V121H342.17L338.93 124.24L340.34 125.66L345 121H347V123L342.34 127.66L343.76 129.07L347 125.83V130H349V125.83L352.24 129.07L353.66 127.66L349 123V121H351L355.66 125.66L357.07 124.24L353.83 121H358V119Z" fill="white"/>
</g>
<circle cx="348" cy="120" r="32" stroke="white" stroke-width="2"/>
<path d="M175.311 157.896H158.98V168.103H175.311V157.896Z" fill="white"/>
<path d="M179.713 159.928L176.108 161.443V164.6L179.713 166.115H181.02V159.928H179.713Z" fill="white"/>
<circle cx="170" cy="163" r="32" stroke="white" stroke-width="2"/>
<path d="M334 284C334 279 330 275 325 275C320 275 316 279 316 284C316 287.1 317.6 289.9 320 291.5V294C320 295.3 320.8 296.4 322 296.8V297C322 298.7 323.3 300 325 300C326.7 300 328 298.7 328 297V296.8C329.2 296.4 330 295.3 330 294V291.5C332.4 289.9 334 287.1 334 284ZM318 284C318 280.1 321.1 277 325 277C328.9 277 332 280.1 332 284C332 287.5 329.4 290.4 326 290.9V288.4L327.7 286.7C328.1 286.3 328.1 285.7 327.7 285.3C327.3 284.9 326.7 284.9 326.3 285.3L325 286.6L323.7 285.3C323.3 284.9 322.7 284.9 322.3 285.3C321.9 285.7 321.9 286.3 322.3 286.7L324 288.4V290.9C320.6 290.4 318 287.5 318 284ZM325 298C324.4 298 324 297.6 324 297H326C326 297.6 325.6 298 325 298ZM328 294C328 294.6 327.6 295 327 295H323C322.4 295 322 294.6 322 294V292.5C322.9 292.8 323.9 293 325 293C326.1 293 327.1 292.8 328 292.5V294Z" fill="white"/>
<circle cx="325" cy="288" r="32" stroke="white" stroke-width="2"/>
<path d="M79 233L91 65" stroke="white" stroke-width="2" stroke-linecap="round"/>
<path d="M142 308L294 297" stroke="white" stroke-width="2" stroke-linecap="round"/>
<path d="M112 244L157 192" stroke="white" stroke-width="2" stroke-linecap="round"/>
<path d="M136 274.5L326 145" stroke="white" stroke-width="2" stroke-linecap="round"/>
</g>
<defs>
<clipPath id="clip0_1_252">
<rect width="48" height="48" fill="white" transform="translate(48 278)"/>
</clipPath>
<clipPath id="clip1_1_252">
<rect width="24" height="24" fill="white" transform="translate(82 21)"/>
</clipPath>
<clipPath id="clip2_1_252">
<rect width="24" height="24" fill="white" transform="translate(336 108)"/>
</clipPath>
</defs>
</svg>
